<svg id="sankey_svg" data-name="sankey svg" xmlns="http://www.w3.org/2000/svg" viewBox="0 0 2519.99 1080.09"><defs><style>.cls-1{fill:#fff;}.cls-10,.cls-2,.cls-3,.cls-4,.cls-5,.cls-6,.cls-7,.cls-8,.cls-9{fill:none;stroke-opacity:0.4;}.cls-2{stroke:silver;}.cls-10,.cls-11,.cls-16,.cls-18,.cls-2,.cls-20,.cls-23,.cls-3,.cls-4,.cls-5,.cls-6,.cls-7,.cls-8,.cls-9{stroke-width:3px;}.cls-3{stroke:#c6ef00;}.cls-4{stroke:#ffbe58;}.cls-5{stroke:#4182ff;}.cls-6{stroke:#1000e0;}.cls-7{stroke:#bdf4ff;}.cls-8{stroke:#ff5f45;}.cls-9{stroke:#ff5e3d;}.cls-10{stroke:#b50f00;}.cls-11{fill:#03d1ff;}.cls-11,.cls-16,.cls-18,.cls-20,.cls-23{stroke:#000;}.cls-12,.cls-15,.cls-21,.cls-24,.cls-26,.cls-27,.cls-29,.cls-34,.cls-35,.cls-36,.cls-37{isolation:isolate;font-family:Helvetica-Bold, Helvetica;font-weight:700;}.cls-12{font-size:20px;}.cls-13{letter-spacing:-0.05em;}.cls-14{letter-spacing:-0.04em;}.cls-15{font-size:24px;}.cls-16{fill:#f70014;}.cls-17{letter-spacing:-0.02em;}.cls-18{fill:#00ef23;}.cls-19{letter-spacing:-0.07em;}.cls-20{fill:#7b006e;}.cls-21{font-size:24.16px;}.cls-22{letter-spacing:1.22em;}.cls-23{fill:#c5c000;}.cls-24{font-size:20.46px;}.cls-25{letter-spacing:-0.05em;}.cls-26{font-size:23.71px;}.cls-27{font-size:12px;}.cls-28{fill:#942193;fill-opacity:0.9;}.cls-29{font-size:33.9px;}.cls-30{letter-spacing:-0.02em;}.cls-31{letter-spacing:0em;}.cls-32{letter-spacing:-0.02em;}.cls-33{letter-spacing:0em;}.cls-34{font-size:34.51px;}.cls-35{font-size:36px;}.cls-36{font-size:34px;}.cls-37{font-size:40.89px;}.cls-38{letter-spacing:-0.04em;}.cls-39{letter-spacing:0em;}</style></defs><title>sankey_option1</title><rect class="cls-1" width="2518.36" height="1080.09"/><path class="cls-2" d="M240.93,21.83c37.3,0,149.3,58.6,186.6,58.6" transform="translate(311.06 77.89)"/><path class="cls-3" d="M240.93,67c37.3,0,149.3,40.6,186.6,40.6" transform="translate(311.06 77.89)"/><path class="cls-2" d="M240.93,112.23c37.3,0,149.3,22.6,186.6,22.6" transform="translate(311.06 77.89)"/><path class="cls-3" d="M240.93,157.33c37.3,0,149.3,4.6,186.6,4.6" transform="translate(311.06 77.89)"/><path class="cls-2" d="M240.93,202.53c37.3,0,149.3-13.4,186.6-13.4" transform="translate(311.06 77.89)"/><path class="cls-3" d="M240.93,338.13c37.3,0,149.3,32.8,186.6,32.8" transform="translate(311.06 77.89)"/><path class="cls-3" d="M240.93,383.23c37.3,0,149.3,14.8,186.6,14.8" transform="translate(311.06 77.89)"/><path class="cls-2" d="M240.93,428.43c37.3,0,149.3-3.2,186.6-3.2" transform="translate(311.06 77.89)"/><path class="cls-2" d="M240.93,473.63c37.3,0,149.3-21.2,186.6-21.2" transform="translate(311.06 77.89)"/><path class="cls-3" d="M240.93,699.53c37.3,0,149.3,8.5,186.6,8.5" transform="translate(311.06 77.89)"/><path class="cls-3" d="M240.93,744.73c37.3,0,149.3-9.5,186.6-9.5" transform="translate(311.06 77.89)"/><path class="cls-2" d="M240.93,247.73c37.3,0,149.3,8.3,186.6,8.3" transform="translate(311.06 77.89)"/><path class="cls-2" d="M240.93,292.93c37.3,0,149.3,8.3,186.6,8.3" transform="translate(311.06 77.89)"/><path class="cls-2" d="M240.93,564c37.3,0,149.3,3,186.6,3" transform="translate(311.06 77.89)"/><path class="cls-2" d="M240.93,970.63c37.3,0,149.3-4.1,186.6-4.1" transform="translate(311.06 77.89)"/><path class="cls-2" d="M240.93,789.93c37.3,0,149.3-4.1,186.6-4.1" transform="translate(311.06 77.89)"/><path class="cls-2" d="M240.93,654.33c37.3,0,149.3,3,186.6,3" transform="translate(311.06 77.89)"/><path class="cls-2" d="M240.93,518.83c37.3,0,149.3-4.9,186.6-4.9" transform="translate(311.06 77.89)"/><path class="cls-2" d="M240.93,925.43c37.3,0,149.3-4.1,186.6-4.1" transform="translate(311.06 77.89)"/><path class="cls-2" d="M240.93,609.23c37.3,0,149.3,3,186.6,3" transform="translate(311.06 77.89)"/><path class="cls-2" d="M240.93,835.13c37.3,0,149.3-4.1,186.6-4.1" transform="translate(311.06 77.89)"/><path class="cls-2" d="M240.93,880.23c37.3,0,149.3-4.1,186.6-4.1" transform="translate(311.06 77.89)"/><path class="cls-2" d="M437.53,256c37.3,0,149.3-8.8,186.6-8.8" transform="translate(311.06 77.89)"/><path class="cls-2" d="M437.53,80.33c37.3,0,149.3,31,186.6,31" transform="translate(311.06 77.89)"/><path class="cls-4" d="M437.53,107.53c37.3,0,149.3,31,186.6,31" transform="translate(311.06 77.89)"/><path class="cls-2" d="M437.53,134.73c37.3,0,149.3,31,186.6,31" transform="translate(311.06 77.89)"/><path class="cls-2" d="M437.53,301.23c37.3,0,149.3-26.8,186.6-26.8" transform="translate(311.06 77.89)"/><path class="cls-2" d="M437.53,161.93c37.3,0,149.3,31,186.6,31" transform="translate(311.06 77.89)"/><path class="cls-4" d="M437.53,189.13c37.3,0,149.3,31,186.6,31" transform="translate(311.06 77.89)"/><path class="cls-2" d="M437.53,370.83c37.3,0,149.3,10,186.6,10" transform="translate(311.06 77.89)"/><path class="cls-3" d="M437.53,513.93c37.3,0,149.3-24.4,186.6-24.4" transform="translate(311.06 77.89)"/><path class="cls-2" d="M437.53,398c37.3,0,149.3,10,186.6,10" transform="translate(311.06 77.89)"/><path class="cls-3" d="M437.53,425.23c37.3,0,149.3,10,186.6,10" transform="translate(311.06 77.89)"/><path class="cls-2" d="M437.53,452.43c37.3,0,149.3,10,186.6,10" transform="translate(311.06 77.89)"/><path class="cls-3" d="M437.53,708c37.3,0,149.3.9,186.6.9" transform="translate(311.06 77.89)"/><path class="cls-3" d="M437.53,735.23c37.3,0,149.3.9,186.6.9" transform="translate(311.06 77.89)"/><path class="cls-2" d="M437.53,567c37.3,0,149.3,3,186.6,3" transform="translate(311.06 77.89)"/><path class="cls-2" d="M437.53,966.53c37.3,0,149.3-1.3,186.6-1.3" transform="translate(311.06 77.89)"/><path class="cls-2" d="M437.53,785.83c37.3,0,149.3-1.3,186.6-1.3" transform="translate(311.06 77.89)"/><path class="cls-2" d="M437.53,657.33c37.3,0,149.3,3,186.6,3" transform="translate(311.06 77.89)"/><path class="cls-2" d="M437.53,921.33c37.3,0,149.3-1.3,186.6-1.3" transform="translate(311.06 77.89)"/><path class="cls-2" d="M437.53,612.23c37.3,0,149.3,3,186.6,3" transform="translate(311.06 77.89)"/><path class="cls-2" d="M437.53,831c37.3,0,149.3-1.3,186.6-1.3" transform="translate(311.06 77.89)"/><path class="cls-2" d="M437.53,876.13c37.3,0,149.3-1.3,186.6-1.3" transform="translate(311.06 77.89)"/><path class="cls-2" d="M634.13,111.43c37.3,0,149.3,17.1,186.6,17.1" transform="translate(311.06 77.89)"/><path class="cls-4" d="M634.13,138.53c37.3,0,149.3,17.1,186.6,17.1" transform="translate(311.06 77.89)"/><path class="cls-2" d="M634.13,165.73c37.3,0,149.3,17.1,186.6,17.1" transform="translate(311.06 77.89)"/><path class="cls-2" d="M634.13,192.93c37.3,0,149.3,17.1,186.6,17.1" transform="translate(311.06 77.89)"/><path class="cls-4" d="M634.13,220.13c37.3,0,149.3,17.1,186.6,17.1" transform="translate(311.06 77.89)"/><path class="cls-2" d="M634.13,247.33c37.3,0,149.3,17.1,186.6,17.1" transform="translate(311.06 77.89)"/><path class="cls-2" d="M634.13,274.53c37.3,0,149.3,17.1,186.6,17.1" transform="translate(311.06 77.89)"/><path class="cls-2" d="M634.13,380.83c37.3,0,149.3,3.1,186.6,3.1" transform="translate(311.06 77.89)"/><path class="cls-5" d="M634.13,408c37.3,0,149.3,3.1,186.6,3.1" transform="translate(311.06 77.89)"/><path class="cls-2" d="M634.13,435.23c37.3,0,149.3,3.1,186.6,3.1" transform="translate(311.06 77.89)"/><path class="cls-2" d="M634.13,462.33c37.3,0,149.3,3.1,186.6,3.1" transform="translate(311.06 77.89)"/><path class="cls-5" d="M634.13,489.53c37.3,0,149.3,3.1,186.6,3.1" transform="translate(311.06 77.89)"/><path class="cls-5" d="M634.13,784.53c37.3,0,149.3-22.3,186.6-22.3" transform="translate(311.06 77.89)"/><path class="cls-2" d="M634.13,708.93c37.3,0,149.3-1,186.6-1" transform="translate(311.06 77.89)"/><path class="cls-5" d="M634.13,736c37.3,0,149.3-1,186.6-1" transform="translate(311.06 77.89)"/><path class="cls-3" d="M634.13,570c37.3,0,149.3,8.5,186.6,8.5" transform="translate(311.06 77.89)"/><path class="cls-3" d="M634.13,615.23c37.3,0,149.3-9.5,186.6-9.5" transform="translate(311.06 77.89)"/><path class="cls-2" d="M634.13,965.23c37.3,0,149.3-12.5,186.6-12.5" transform="translate(311.06 77.89)"/><path class="cls-2" d="M634.13,660.43c37.3,0,149.3-4,186.6-4" transform="translate(311.06 77.89)"/><path class="cls-2" d="M634.13,920.13c37.3,0,149.3-12.5,186.6-12.5" transform="translate(311.06 77.89)"/><path class="cls-2" d="M634.13,829.73c37.3,0,149.3-12.5,186.6-12.5" transform="translate(311.06 77.89)"/><path class="cls-2" d="M634.13,874.93c37.3,0,149.3-12.5,186.6-12.5" transform="translate(311.06 77.89)"/><path class="cls-2" d="M830.73,128.53c37.3,0,149.3,17.2,186.6,17.2" transform="translate(311.06 77.89)"/><path class="cls-4" d="M830.73,155.73c37.3,0,149.3,17.2,186.6,17.2" transform="translate(311.06 77.89)"/><path class="cls-2" d="M830.73,182.93c37.3,0,149.3,17.2,186.6,17.2" transform="translate(311.06 77.89)"/><path class="cls-2" d="M830.73,210c37.3,0,149.3,17.2,186.6,17.2" transform="translate(311.06 77.89)"/><path class="cls-4" d="M830.73,237.23c37.3,0,149.3,17.2,186.6,17.2" transform="translate(311.06 77.89)"/><path class="cls-2" d="M830.73,264.43c37.3,0,149.3,17.2,186.6,17.2" transform="translate(311.06 77.89)"/><path class="cls-2" d="M830.73,291.63c37.3,0,149.3,17.2,186.6,17.2" transform="translate(311.06 77.89)"/><path class="cls-2" d="M830.73,383.93c37.3,0,149.3,3.1,186.6,3.1" transform="translate(311.06 77.89)"/><path class="cls-6" d="M830.73,411.13c37.3,0,149.3,3.1,186.6,3.1" transform="translate(311.06 77.89)"/><path class="cls-2" d="M830.73,438.33c37.3,0,149.3,3.1,186.6,3.1" transform="translate(311.06 77.89)"/><path class="cls-2" d="M830.73,465.43c37.3,0,149.3,3.1,186.6,3.1" transform="translate(311.06 77.89)"/><path class="cls-6" d="M830.73,492.63c37.3,0,149.3,3.1,186.6,3.1" transform="translate(311.06 77.89)"/><path class="cls-2" d="M830.73,707.83c37.3,0,149.3-5.1,186.6-5.1" transform="translate(311.06 77.89)"/><path class="cls-5" d="M830.73,735c37.3,0,149.3-5.1,186.6-5.1" transform="translate(311.06 77.89)"/><path class="cls-5" d="M830.73,762.23c37.3,0,149.3-5.1,186.6-5.1" transform="translate(311.06 77.89)"/><path class="cls-3" d="M830.73,578.53c37.3,0,149.3-.4,186.6-.4" transform="translate(311.06 77.89)"/><path class="cls-3" d="M830.73,605.73c37.3,0,149.3-.4,186.6-.4" transform="translate(311.06 77.89)"/><path class="cls-2" d="M830.73,952.83c37.3,0,149.3-9,186.6-9" transform="translate(311.06 77.89)"/><path class="cls-2" d="M830.73,656.33c37.3,0,149.3-2.6,186.6-2.6" transform="translate(311.06 77.89)"/><path class="cls-2" d="M830.73,907.63c37.3,0,149.3-9,186.6-9" transform="translate(311.06 77.89)"/><path class="cls-2" d="M830.73,817.23c37.3,0,149.3-9,186.6-9" transform="translate(311.06 77.89)"/><path class="cls-2" d="M830.73,862.43c37.3,0,149.3-9,186.6-9" transform="translate(311.06 77.89)"/><path class="cls-7" d="M1027.33,145.73c37.3,0,149.3,17.3,186.6,17.3" transform="translate(311.06 77.89)"/><path class="cls-2" d="M1027.33,172.93c37.3,0,149.3,17.3,186.6,17.3" transform="translate(311.06 77.89)"/><path class="cls-7" d="M1027.33,200.13c37.3,0,149.3,17.3,186.6,17.3" transform="translate(311.06 77.89)"/><path class="cls-2" d="M1027.33,227.33c37.3,0,149.3,17.3,186.6,17.3" transform="translate(311.06 77.89)"/><path class="cls-2" d="M1027.28,255c37.3-.25,149.41,16.32,186.71,16.07" transform="translate(311.06 77.89)"/><path class="cls-2" d="M1027.33,281.63c37.3,0,149.3,17.3,186.6,17.3" transform="translate(311.06 77.89)"/><path class="cls-2" d="M1027.33,308.83c37.3,0,149.3,17.3,186.6,17.3" transform="translate(311.06 77.89)"/><path class="cls-2" d="M1027.33,387c37.3,0,149.3,4.3,186.6,4.3" transform="translate(311.06 77.89)"/><path class="cls-6" d="M1027.33,414.23c37.3,0,149.3,4.3,186.6,4.3" transform="translate(311.06 77.89)"/><path class="cls-2" d="M1027.33,441.43c37.3,0,149.3,4.3,186.6,4.3" transform="translate(311.06 77.89)"/><path class="cls-2" d="M1027.33,468.63c37.3,0,149.3,4.3,186.6,4.3" transform="translate(311.06 77.89)"/><path class="cls-6" d="M1027.33,495.73c37.3,0,149.3,4.3,186.6,4.3" transform="translate(311.06 77.89)"/><path class="cls-3" d="M1027.33,578.13c37.3,0,149.3,3.9,186.6,3.9" transform="translate(311.06 77.89)"/><path class="cls-2" d="M1027.33,605.33c37.3,0,149.3,3.9,186.6,3.9" transform="translate(311.06 77.89)"/><path class="cls-3" d="M1027.33,653.83c37.3,0,149.3-17.4,186.6-17.4" transform="translate(311.06 77.89)"/><path class="cls-2" d="M1027.33,702.73c37.3,0,149.3-10.3,186.6-10.3" transform="translate(311.06 77.89)"/><path class="cls-5" d="M1027.33,729.93c37.3,0,149.3-10.3,186.6-10.3" transform="translate(311.06 77.89)"/><path class="cls-5" d="M1027.33,757.13c37.3,0,149.3-10.3,186.6-10.3" transform="translate(311.06 77.89)"/><path class="cls-2" d="M1027.33,943.83c37.3,0,149.3-12.7,186.6-12.7" transform="translate(311.06 77.89)"/><path class="cls-2" d="M1027.33,898.63c37.3,0,149.3-12.7,186.6-12.7" transform="translate(311.06 77.89)"/><path class="cls-2" d="M1027.33,808.23c37.3,0,149.3-12.7,186.6-12.7" transform="translate(311.06 77.89)"/><path class="cls-2" d="M1027.33,853.43c37.3,0,149.3-12.7,186.6-12.7" transform="translate(311.06 77.89)"/><path class="cls-2" d="M1223.93,163c37.3,0,149.3,27,186.6,27" transform="translate(311.06 77.89)"/><path class="cls-2" d="M1223.93,391.33c37.3,0,149.3-11,186.6-11" transform="translate(311.06 77.89)"/><path class="cls-8" d="M1223.93,190.23c37.3,0,149.3,27,186.6,27" transform="translate(311.06 77.89)"/><path class="cls-2" d="M1223.93,217.43c37.3,0,149.3,27,186.6,27" transform="translate(311.06 77.89)"/><path class="cls-2" d="M1223.93,418.43c37.3,0,149.3-11,186.6-11" transform="translate(311.06 77.89)"/><path class="cls-2" d="M1223.93,244.63c37.3,0,149.3,27,186.6,27" transform="translate(311.06 77.89)"/><path class="cls-2" d="M1223.93,271.73c37.3,0,149.3,27,186.6,27" transform="translate(311.06 77.89)"/><path class="cls-2" d="M1223.93,445.63c37.3,0,149.3-11,186.6-11" transform="translate(311.06 77.89)"/><path class="cls-2" d="M1223.93,298.93c37.3,0,149.3,27,186.6,27" transform="translate(311.06 77.89)"/><path class="cls-8" d="M1223.93,472.83c37.3,0,149.3-11,186.6-11" transform="translate(311.06 77.89)"/><path class="cls-2" d="M1223.93,326.13c37.3,0,149.3,27,186.6,27" transform="translate(311.06 77.89)"/><path class="cls-2" d="M1223.93,500c37.3,0,149.3-11,186.6-11" transform="translate(311.06 77.89)"/><path class="cls-2" d="M1223.93,582c37.3,0,149.3,5.6,186.6,5.6" transform="translate(311.06 77.89)"/><path class="cls-2" d="M1223.93,609.23c37.3,0,149.3,5.6,186.6,5.6" transform="translate(311.06 77.89)"/><path class="cls-2" d="M1223.93,692.43c37.3,0,149.3-23.3,186.6-23.3" transform="translate(311.06 77.89)"/><path class="cls-9" d="M1223.93,719.63c37.3,0,149.3-23.3,186.6-23.3" transform="translate(311.06 77.89)"/><path class="cls-2" d="M1223.93,746.83c37.3,0,149.3-23.3,186.6-23.3" transform="translate(311.06 77.89)"/><path class="cls-9" d="M1223.93,636.43c37.3,0,149.3,5.6,186.6,5.6" transform="translate(311.06 77.89)"/><path class="cls-2" d="M1223.93,931.13c37.3,0,149.3-16,186.6-16" transform="translate(311.06 77.89)"/><path class="cls-2" d="M1223.93,886c37.3,0,149.3-16,186.6-16" transform="translate(311.06 77.89)"/><path class="cls-2" d="M1223.93,795.63c37.3,0,149.3-16,186.6-16" transform="translate(311.06 77.89)"/><path class="cls-2" d="M1223.93,840.83c37.3,0,149.3-16,186.6-16" transform="translate(311.06 77.89)"/><path class="cls-2" d="M1420.53,190c37.3,0,149.3,11.3,186.6,11.3" transform="translate(311.06 77.89)"/><path class="cls-2" d="M1420.53,217.23c37.3,0,149.3,11.3,186.6,11.3" transform="translate(311.06 77.89)"/><path class="cls-2" d="M1420.53,244.43c37.3,0,149.3,11.3,186.6,11.3" transform="translate(311.06 77.89)"/><path class="cls-2" d="M1420.53,271.63c37.3,0,149.3,11.3,186.6,11.3" transform="translate(311.06 77.89)"/><path class="cls-2" d="M1420.53,298.73c37.3,0,149.3,11.3,186.6,11.3" transform="translate(311.06 77.89)"/><path class="cls-2" d="M1420.53,325.93c37.3,0,149.3,11.3,186.6,11.3" transform="translate(311.06 77.89)"/><path class="cls-4" d="M1420.53,353.13c37.3,0,149.3,11.3,186.6,11.3" transform="translate(311.06 77.89)"/><path class="cls-2" d="M1420.53,380.33c37.3,0,149.3,11.3,186.6,11.3" transform="translate(311.06 77.89)"/><path class="cls-2" d="M1420.53,407.53c37.3,0,149.3,11.3,186.6,11.3" transform="translate(311.06 77.89)"/><path class="cls-2" d="M1420.53,434.73c37.3,0,149.3,11.3,186.6,11.3" transform="translate(311.06 77.89)"/><path class="cls-4" d="M1420.53,461.83c37.3,0,149.3,11.3,186.6,11.3" transform="translate(311.06 77.89)"/><path class="cls-2" d="M1420.53,489c37.3,0,149.3,11.3,186.6,11.3" transform="translate(311.06 77.89)"/><path class="cls-2" d="M1420.53,587.63c37.3,0,149.3-8.8,186.6-8.8" transform="translate(311.06 77.89)"/><path class="cls-2" d="M1420.53,614.83c37.3,0,149.3-8.8,186.6-8.8" transform="translate(311.06 77.89)"/><path class="cls-3" d="M1420.53,642c37.3,0,149.3-8.8,186.6-8.8" transform="translate(311.06 77.89)"/><path class="cls-3" d="M1420.53,669.13c37.3,0,149.3-8.8,186.6-8.8" transform="translate(311.06 77.89)"/><path class="cls-2" d="M1420.53,696.33c37.3,0,149.3-8.8,186.6-8.8" transform="translate(311.06 77.89)"/><path class="cls-2" d="M1420.53,723.53c37.3,0,149.3-8.8,186.6-8.8" transform="translate(311.06 77.89)"/><path class="cls-2" d="M1420.53,915.23c37.3,0,149.3-13.2,186.6-13.2" transform="translate(311.06 77.89)"/><path class="cls-2" d="M1420.53,870c37.3,0,149.3-13.2,186.6-13.2" transform="translate(311.06 77.89)"/><path class="cls-2" d="M1420.53,779.63c37.3,0,149.3-13.2,186.6-13.2" transform="translate(311.06 77.89)"/><path class="cls-2" d="M1420.53,824.83c37.3,0,149.3-13.2,186.6-13.2" transform="translate(311.06 77.89)"/><path class="cls-2" d="M1617.13,201.33c37.3,0,149.3,25.8,186.6,25.8" transform="translate(311.06 77.89)"/><path class="cls-2" d="M1617.13,578.83c37.3,0,149.3-25.4,186.6-25.4" transform="translate(311.06 77.89)"/><path class="cls-10" d="M1617.13,228.53c37.3,0,149.3,25.8,186.6,25.8" transform="translate(311.06 77.89)"/><path class="cls-2" d="M1617.13,605.93c37.3,0,149.3-25.4,186.6-25.4" transform="translate(311.06 77.89)"/><path class="cls-2" d="M1617.13,255.73c37.3,0,149.3,25.8,186.6,25.8" transform="translate(311.06 77.89)"/><path class="cls-2" d="M1617.13,282.83c37.3,0,149.3,25.8,186.6,25.8" transform="translate(311.06 77.89)"/><path class="cls-2" d="M1617.13,633.13c37.3,0,149.3-25.4,186.6-25.4" transform="translate(311.06 77.89)"/><path class="cls-2" d="M1617.13,310c37.3,0,149.3,25.8,186.6,25.8" transform="translate(311.06 77.89)"/><path class="cls-2" d="M1617.13,766.53c37.3,0,149.3-50,186.6-50" transform="translate(311.06 77.89)"/><path class="cls-2" d="M1617.13,337.23c37.3,0,149.3,25.8,186.6,25.8" transform="translate(311.06 77.89)"/><path class="cls-2" d="M1617.13,364.43c37.3,0,149.3,25.8,186.6,25.8" transform="translate(311.06 77.89)"/><path class="cls-2" d="M1617.13,391.63c37.3,0,149.3,25.8,186.6,25.8" transform="translate(311.06 77.89)"/><path class="cls-2" d="M1617.13,418.83c37.3,0,149.3,25.8,186.6,25.8" transform="translate(311.06 77.89)"/><path class="cls-2" d="M1617.13,660.33c37.3,0,149.3-25.4,186.6-25.4" transform="translate(311.06 77.89)"/><path class="cls-10" d="M1617.13,687.53c37.3,0,149.3-25.4,186.6-25.4" transform="translate(311.06 77.89)"/><path class="cls-2" d="M1617.13,714.73c37.3,0,149.3-25.4,186.6-25.4" transform="translate(311.06 77.89)"/><path class="cls-2" d="M1617.13,445.93c37.3,0,149.3,25.8,186.6,25.8" transform="translate(311.06 77.89)"/><path class="cls-2" d="M1617.13,811.63c37.3,0,149.3-68,186.6-68" transform="translate(311.06 77.89)"/><path class="cls-2" d="M1617.13,473.13c37.3,0,149.3,25.8,186.6,25.8" transform="translate(311.06 77.89)"/><path class="cls-2" d="M1617.13,500.33c37.3,0,149.3,25.8,186.6,25.8" transform="translate(311.06 77.89)"/><path class="cls-2" d="M1617.13,902c37.3,0,149.3-21.5,186.6-21.5" transform="translate(311.06 77.89)"/><path class="cls-2" d="M1617.13,856.83c37.3,0,149.3-22.8,186.6-22.8" transform="translate(311.06 77.89)"/><path class="cls-2" d="M1813.73,227.13c37.3,0,149.3,3.9,186.6,3.9" transform="translate(311.06 77.89)"/><path class="cls-2" d="M1813.73,254.33c37.3,0,149.3,3.9,186.6,3.9" transform="translate(311.06 77.89)"/><path class="cls-2" d="M1813.73,281.53c37.3,0,149.3,3.9,186.6,3.9" transform="translate(311.06 77.89)"/><path class="cls-2" d="M1813.73,308.73c37.3,0,149.3,3.9,186.6,3.9" transform="translate(311.06 77.89)"/><path class="cls-2" d="M1813.73,834c37.3,0,149.3-59.3,186.6-59.3" transform="translate(311.06 77.89)"/><path class="cls-2" d="M1813.73,335.93c37.3,0,149.3,3.9,186.6,3.9" transform="translate(311.06 77.89)"/><path class="cls-2" d="M1813.73,363.13c37.3,0,149.3,3.9,186.6,3.9" transform="translate(311.06 77.89)"/><path class="cls-2" d="M1813.73,390.23c37.3,0,149.3,3.9,186.6,3.9" transform="translate(311.06 77.89)"/><path class="cls-10" d="M1813.73,417.43c37.3,0,149.3,3.9,186.6,3.9" transform="translate(311.06 77.89)"/><path class="cls-2" d="M1813.73,444.63c37.3,0,149.3,3.9,186.6,3.9" transform="translate(311.06 77.89)"/><path class="cls-2" d="M1813.73,471.83c37.3,0,149.3,3.9,186.6,3.9" transform="translate(311.06 77.89)"/><path class="cls-2" d="M1813.73,499c37.3,0,149.3,3.9,186.6,3.9" transform="translate(311.06 77.89)"/><path class="cls-2" d="M1813.73,526.13c37.3,0,149.3,3.9,186.6,3.9" transform="translate(311.06 77.89)"/><path class="cls-10" d="M1813.73,553.33c37.3,0,149.3,3.9,186.6,3.9" transform="translate(311.06 77.89)"/><path class="cls-2" d="M1813.73,580.53c37.3,0,149.3,3.9,186.6,3.9" transform="translate(311.06 77.89)"/><path class="cls-2" d="M1813.73,607.73c37.3,0,149.3,3.9,186.6,3.9" transform="translate(311.06 77.89)"/><path class="cls-2" d="M1813.73,634.93c37.3,0,149.3,3.9,186.6,3.9" transform="translate(311.06 77.89)"/><path class="cls-2" d="M1813.73,662.13c37.3,0,149.3,3.9,186.6,3.9" transform="translate(311.06 77.89)"/><path class="cls-2" d="M1813.73,689.23c37.3,0,149.3,3.9,186.6,3.9" transform="translate(311.06 77.89)"/><path class="cls-2" d="M1813.73,716.43c37.3,0,149.3,3.9,186.6,3.9" transform="translate(311.06 77.89)"/><path class="cls-2" d="M1813.73,743.63c37.3,0,149.3,3.9,186.6,3.9" transform="translate(311.06 77.89)"/><path class="cls-2" d="M1813.73,880.53c37.3,0,149.3-21.6,186.6-21.6" transform="translate(311.06 77.89)"/><path class="cls-2" d="M2010.33,231c37.3,0,149.3,2.5,186.6,2.5" transform="translate(311.06 77.89)"/><path class="cls-2" d="M2010.33,258.23c37.3,0,149.3,2.5,186.6,2.5" transform="translate(311.06 77.89)"/><path class="cls-2" d="M2010.33,285.43c37.3,0,149.3,2.5,186.6,2.5" transform="translate(311.06 77.89)"/><path class="cls-2" d="M2010.33,312.53c37.3,0,149.3,2.5,186.6,2.5" transform="translate(311.06 77.89)"/><path class="cls-2" d="M2010.33,339.73c37.3,0,149.3,2.5,186.6,2.5" transform="translate(311.06 77.89)"/><path class="cls-2" d="M2010.33,366.93c37.3,0,149.3,2.5,186.6,2.5" transform="translate(311.06 77.89)"/><path class="cls-2" d="M2010.33,394.13c37.3,0,149.3,2.5,186.6,2.5" transform="translate(311.06 77.89)"/><path class="cls-2" d="M2010.33,421.33c37.3,0,149.3,2.5,186.6,2.5" transform="translate(311.06 77.89)"/><path class="cls-2" d="M2010.33,448.53c37.3,0,149.3,2.5,186.6,2.5" transform="translate(311.06 77.89)"/><path class="cls-2" d="M2010.33,475.63c37.3,0,149.3,2.5,186.6,2.5" transform="translate(311.06 77.89)"/><path class="cls-2" d="M2010.33,502.83c37.3,0,149.3,2.5,186.6,2.5" transform="translate(311.06 77.89)"/><path class="cls-2" d="M2010.33,859c37.3,0,149.3-54.7,186.6-54.7" transform="translate(311.06 77.89)"/><path class="cls-2" d="M2010.33,530c37.3,0,149.3,2.5,186.6,2.5" transform="translate(311.06 77.89)"/><path class="cls-4" d="M2010.33,557.23c37.3,0,149.3,2.5,186.6,2.5" transform="translate(311.06 77.89)"/><path class="cls-2" d="M2010.33,584.43c37.3,0,149.3,2.5,186.6,2.5" transform="translate(311.06 77.89)"/><path class="cls-2" d="M2010.33,611.53c37.3,0,149.3,2.5,186.6,2.5" transform="translate(311.06 77.89)"/><path class="cls-2" d="M2010.33,638.73c37.3,0,149.3,2.5,186.6,2.5" transform="translate(311.06 77.89)"/><path class="cls-2" d="M2010.33,665.93c37.3,0,149.3,2.5,186.6,2.5" transform="translate(311.06 77.89)"/><path class="cls-2" d="M2010.33,693.13c37.3,0,149.3,2.5,186.6,2.5" transform="translate(311.06 77.89)"/><path class="cls-2" d="M2010.33,720.33c37.3,0,149.3,2.5,186.6,2.5" transform="translate(311.06 77.89)"/><path class="cls-2" d="M2010.33,747.53c37.3,0,149.3,2.5,186.6,2.5" transform="translate(311.06 77.89)"/><path class="cls-2" d="M2010.33,774.63c37.3,0,149.3,2.5,186.6,2.5" transform="translate(311.06 77.89)"/><rect id="r0" class="cls-11" x="541.99" y="86.12" width="10" height="27.2"/><text class="cls-12" transform="translate(554.99 107.91)"><tspan class="cls-13">A</tspan><tspan x="13.35" y="0">WS Los</tspan><tspan class="cls-14" x="86.68" y="0"> </tspan><tspan x="91.5" y="0">Angeles</tspan></text><rect id="r1" class="cls-11" x="738.59" y="144.72" width="10" height="135.9"/><text class="cls-15" transform="translate(821.59 237.82)">US</text><rect id="r2" class="cls-11" x="541.99" y="131.32" width="10" height="27.2"/><text class="cls-12" transform="translate(554.99 162.09)"><tspan class="cls-13">A</tspan><tspan x="13.35" y="0">WS</tspan><tspan class="cls-14" x="45.57" y="0"> </tspan><tspan x="50.39" y="0">Ashburn</tspan></text><rect id="r3" class="cls-11" x="541.99" y="176.52" width="10" height="27.2"/><text class="cls-12" transform="translate(557.99 200.27)"><tspan class="cls-13">A</tspan><tspan x="13.35" y="0">WS Columbus</tspan></text><rect id="r4" class="cls-11" x="541.99" y="221.62" width="10" height="27.2"/><text class="cls-12" transform="translate(556.99 239.45)"><tspan class="cls-13">A</tspan><tspan x="13.35" y="0">WS Charlotte</tspan></text><rect id="r5" class="cls-11" x="541.99" y="266.82" width="10" height="27.2"/><text class="cls-12" transform="translate(553.99 284.63)"><tspan class="cls-13">A</tspan><tspan x="13.35" y="0">WS San Francisco</tspan></text><rect id="r6" class="cls-16" x="541.99" y="402.42" width="10" height="27.2"/><text class="cls-12" transform="translate(556.99 425.18)"><tspan class="cls-13">A</tspan><tspan x="13.35" y="0">WS Paris</tspan></text><rect id="r7" class="cls-16" x="738.59" y="435.22" width="10" height="108.7"/><text class="cls-15" transform="translate(789.59 493.74)"><tspan class="cls-17">W</tspan><tspan x="22.23" y="0" xml:space="preserve">estern  </tspan><tspan x="0" y="28.8" xml:space="preserve"> Europe</tspan></text><rect id="r8" class="cls-16" x="541.99" y="447.62" width="10" height="27.2"/><text class="cls-12" transform="translate(556.99 468.36)"><tspan class="cls-13">A</tspan><tspan x="13.35" y="0">WS London</tspan></text><rect id="r9" class="cls-16" x="541.99" y="492.72" width="10" height="27.2"/><text class="cls-12" transform="translate(556.99 510.54)"><tspan class="cls-13">A</tspan><tspan x="13.35" y="0">WS Frankfurt</tspan></text><rect id="r10" class="cls-16" x="541.99" y="537.92" width="10" height="27.2"/><text class="cls-12" transform="translate(560.17 554.13)"><tspan class="cls-13">A</tspan><tspan x="13.35" y="0">WS Dublin</tspan></text><rect id="r11" class="cls-18" x="541.99" y="763.82" width="10" height="27.2"/><text class="cls-12" transform="translate(562.99 786.63)"><tspan class="cls-13">A</tspan><tspan x="13.35" y="0">WS Osaka</tspan></text><rect id="r12" class="cls-18" x="738.59" y="772.32" width="10" height="54.4"/><text class="cls-15" transform="translate(799.59 803.68)">Japan</text><rect id="r13" class="cls-18" x="541.99" y="809.02" width="10" height="27.2"/><text class="cls-12" transform="translate(562.99 830.32)"><tspan class="cls-13">A</tspan><tspan x="13.35" y="0">WS </tspan><tspan class="cls-19" x="51.12" y="0">T</tspan><tspan x="61.87" y="0">okyo</tspan></text><rect id="r14" class="cls-11" x="541.99" y="312.02" width="10" height="27.2"/><text class="cls-12" transform="translate(556.99 329.82)"><tspan class="cls-13">A</tspan><tspan x="13.35" y="0">WS Portland</tspan></text><rect id="r15" class="cls-11" x="738.59" y="320.32" width="10" height="27.2"/><text class="cls-15" transform="translate(771.59 338.15)">North <tspan class="cls-17" x="70.65" y="0">W</tspan><tspan x="92.88" y="0">est</tspan></text><rect id="r16" class="cls-11" x="541.99" y="357.22" width="10" height="27.2"/><text class="cls-12" transform="translate(556.99 375)"><tspan class="cls-13">A</tspan><tspan x="13.35" y="0">WS Montreal</tspan></text><rect id="r17" class="cls-11" x="738.59" y="365.52" width="10" height="27.2"/><text class="cls-15" transform="translate(786.09 381.83)">Canada</text><rect id="r18" class="cls-18" x="541.99" y="628.32" width="10" height="27.2"/><text class="cls-12" transform="translate(556.99 646.09)"><tspan class="cls-13">A</tspan><tspan x="13.35" y="0">WS Mumbai</tspan></text><rect id="r19" class="cls-18" x="738.59" y="631.32" width="10" height="27.2"/><text class="cls-15" transform="translate(759.59 652.1)">Southern<tspan class="cls-14" x="105.33" y="0"> </tspan><tspan x="111.12" y="0">Asia</tspan></text><rect id="r20" class="cls-20" x="541.99" y="1034.92" width="10" height="27.2"/><text class="cls-12" transform="translate(558.99 1053.15)"><tspan class="cls-13">A</tspan><tspan x="13.35" y="0">WS Sao Paulo</tspan></text><rect id="r21" class="cls-20" x="738.59" y="1030.82" width="10" height="27.2"/><text class="cls-21" transform="translate(794.59 1052.78)">Brazil</text><rect id="r22" class="cls-18" x="541.99" y="854.22" width="10" height="27.2"/><text class="cls-12" transform="translate(562.99 877)"><tspan class="cls-13">A</tspan><tspan x="13.35" y="0">WS Seoul</tspan></text><rect id="r23" class="cls-18" x="738.59" y="850.12" width="10" height="27.2"/><text class="cls-15" transform="translate(799.59 867.9)">Korea</text><rect id="r24" class="cls-18" x="541.99" y="718.62" width="10" height="27.2"/><text class="cls-12" transform="translate(556.99 736.45)"><tspan class="cls-13">A</tspan><tspan x="13.35" y="0">WS Singapore</tspan></text><rect id="r25" class="cls-18" x="738.59" y="721.72" width="10" height="27.2"/><text class="cls-15" transform="translate(754.59 729.46)">South Eastern <tspan class="cls-22" x="0" y="28.8">	</tspan><tspan x="36" y="28.8" xml:space="preserve">  </tspan><tspan class="cls-14" x="49.34" y="28.8"> </tspan><tspan x="55.13" y="28.8">Asia</tspan></text><rect id="r26" class="cls-16" x="541.99" y="583.12" width="10" height="27.2"/><text class="cls-12" transform="translate(556.99 600.91)"><tspan class="cls-13">A</tspan><tspan x="13.35" y="0">WS Stockholm</tspan></text><rect id="r27" class="cls-16" x="738.59" y="578.22" width="10" height="27.2"/><text class="cls-15" transform="translate(754.59 596.03)">Northern Europe</text><rect id="r28" class="cls-23" x="541.99" y="989.72" width="10" height="27.2"/><text class="cls-24" transform="translate(562.99 1010.82)"><tspan class="cls-25">A</tspan><tspan x="13.65" y="0">WS Sydney</tspan></text><rect id="r29" class="cls-23" x="738.59" y="985.62" width="10" height="27.2"/><text class="cls-26" transform="translate(779.59 1007.81)">Australia</text><rect id="r30" class="cls-18" x="541.99" y="673.52" width="10" height="27.2"/><text class="cls-12" transform="translate(556.99 691.27)"><tspan class="cls-13">A</tspan><tspan x="13.35" y="0">WS Bahrain</tspan></text><rect id="r31" class="cls-18" x="738.59" y="676.52" width="10" height="27.2"/><text class="cls-15" transform="translate(769.59 694.28)">Middle East</text><rect id="r32" class="cls-18" x="541.99" y="899.42" width="10" height="27.2"/><text class="cls-12" transform="translate(562.99 922.18)"><tspan class="cls-13">A</tspan><tspan x="13.35" y="0">WS Beijing</tspan></text><rect id="r33" class="cls-18" x="738.59" y="895.32" width="10" height="27.2"/><text class="cls-15" transform="translate(799.59 913.08)">China</text><rect id="r34" class="cls-18" x="541.99" y="944.62" width="10" height="27.2"/><text class="cls-12" transform="translate(562.99 967.36)"><tspan class="cls-13">A</tspan><tspan x="13.35" y="0">WS Ningxia</tspan></text><rect id="r35" class="cls-18" x="738.59" y="940.52" width="10" height="27.2"/><text class="cls-15" transform="translate(796.59 958.26)">China</text><rect id="r36" class="cls-11" x="935.19" y="175.72" width="10" height="190.3"/><rect id="r37" class="cls-16" x="935.19" y="445.12" width="10" height="135.9"/><text class="cls-15" transform="translate(991.69 522.28)">Europe</text><rect id="r38" class="cls-18" x="935.19" y="773.22" width="10" height="54.4"/><text class="cls-27" transform="translate(951.19 804.56)">Japan</text><rect id="r39" class="cls-18" x="935.19" y="634.32" width="10" height="27.2"/><rect id="r40" class="cls-20" x="935.19" y="1029.52" width="10" height="27.2"/><rect id="r41" class="cls-18" x="935.19" y="848.82" width="10" height="27.2"/><text class="cls-27" transform="translate(951.19 866.63)">Korea</text><rect id="r42" class="cls-18" x="935.19" y="724.72" width="10" height="27.2"/><rect id="r43" class="cls-23" x="935.19" y="984.42" width="10" height="27.2"/><rect id="r44" class="cls-18" x="935.19" y="679.52" width="10" height="27.2"/><rect id="r45" class="cls-18" x="935.19" y="894.02" width="10" height="27.2"/><rect id="r46" class="cls-18" x="935.19" y="939.22" width="10" height="27.2"/><rect id="r47" class="cls-11" x="1131.79" y="192.82" width="10" height="190.3"/><rect id="r48" class="cls-16" x="1131.79" y="448.22" width="10" height="135.9"/><rect id="r49" class="cls-18" x="1131.79" y="772.12" width="10" height="81.5"/><text class="cls-15" transform="translate(1162.79 818.11)">Eastern<tspan class="cls-14" x="88.04" y="0"> </tspan><tspan x="93.83" y="0">Asia</tspan></text><rect id="r50" class="cls-18" x="1131.79" y="642.82" width="10" height="54.4"/><text class="cls-15" transform="translate(1147.79 664.24)">South <tspan class="cls-17" x="74.65" y="0">W</tspan><tspan x="96.88" y="0">estern </tspan><tspan class="cls-22" x="0" y="28.8">	</tspan><tspan x="36" y="28.8" xml:space="preserve">  </tspan><tspan class="cls-14" x="49.34" y="28.8"> </tspan><tspan x="55.13" y="28.8">Asia</tspan></text><rect id="r51" class="cls-20" x="1131.79" y="1017.12" width="10" height="27.2"/><rect id="r52" class="cls-18" x="1131.79" y="720.62" width="10" height="27.2"/><text class="cls-15" transform="translate(963.79 730.46)">South Eastern <tspan class="cls-22" x="0" y="28.8">	</tspan><tspan x="36" y="28.8" xml:space="preserve">  </tspan><tspan class="cls-14" x="49.34" y="28.8"> </tspan><tspan x="55.13" y="28.8">Asia</tspan></text><rect id="r53" class="cls-23" x="1131.79" y="971.92" width="10" height="27.2"/><rect id="r54" class="cls-18" x="1131.79" y="881.52" width="10" height="27.2"/><rect id="r55" class="cls-18" x="1131.79" y="926.72" width="10" height="27.2"/><rect id="r56" class="cls-11" x="1328.39" y="210.02" width="10" height="190.3"/><rect id="r57" class="cls-16" x="1328.39" y="451.32" width="10" height="135.9"/><rect id="r58" class="cls-18" x="1328.39" y="767.02" width="10" height="81.5"/><rect id="r59" class="cls-18" x="1328.39" y="642.42" width="10" height="54.4"/><rect id="r60" class="cls-20" x="1328.39" y="1008.12" width="10" height="27.2"/><rect id="r61" class="cls-18" x="1328.39" y="718.12" width="10" height="27.2"/><rect id="r62" class="cls-23" x="1328.39" y="962.92" width="10" height="27.2"/><rect id="r63" class="cls-18" x="1328.39" y="872.62" width="10" height="27.2"/><rect id="r64" class="cls-18" x="1328.39" y="917.72" width="10" height="27.2"/><rect id="r65" class="cls-11" x="1524.99" y="227.32" width="10" height="190.3"/><rect id="r66" class="cls-16" x="1524.99" y="455.62" width="10" height="135.9"/><rect id="r67" class="cls-18" x="1524.99" y="646.32" width="10" height="81.5"/><rect id="r68" class="cls-18" x="1524.99" y="756.72" width="10" height="81.5"/><rect id="r69" class="cls-20" x="1524.99" y="995.42" width="10" height="27.2"/><rect id="r70" class="cls-23" x="1524.99" y="950.32" width="10" height="27.2"/><rect id="r71" class="cls-18" x="1524.99" y="859.92" width="10" height="27.2"/><rect id="r72" class="cls-18" x="1524.99" y="905.12" width="10" height="27.2"/><rect id="r73" class="cls-28" x="1721.59" y="254.32" width="10" height="326.2"/><rect id="r74" class="cls-18" x="1721.59" y="651.92" width="10" height="163.1"/><text class="cls-15" transform="translate(1565.34 696.99)">South <tspan class="cls-14" x="74.65" y="0"> </tspan><tspan x="80.44" y="0">Asia</tspan></text><rect id="r75" class="cls-20" x="1721.59" y="979.52" width="10" height="27.2"/><rect id="r76" class="cls-23" x="1721.59" y="934.32" width="10" height="27.2"/><rect id="r77" class="cls-18" x="1721.59" y="843.92" width="10" height="27.2"/><rect id="r78" class="cls-18" x="1721.59" y="889.12" width="10" height="27.2"/><rect id="r79" class="cls-28" x="1918.19" y="265.62" width="10" height="326.2"/><rect id="r80" class="cls-18" x="1918.19" y="643.12" width="10" height="163.1"/><rect id="r81" class="cls-20" x="1918.19" y="966.32" width="10" height="27.2"/><rect id="r82" class="cls-23" x="1918.19" y="921.12" width="10" height="27.2"/><rect id="r83" class="cls-18" x="1918.19" y="830.82" width="10" height="27.2"/><rect id="r84" class="cls-18" x="1918.19" y="875.92" width="10" height="27.2"/><rect id="r85" class="cls-28" x="2114.79" y="291.52" width="10" height="543.6"/><text class="cls-29" transform="translate(1767.08 417.66)"><tspan class="cls-30">W<tspan class="cls-31" x="31.4" y="0">estern </tspan></tspan><tspan x="0" y="40.68" xml:space="preserve">  </tspan><tspan class="cls-32" x="18.83" y="40.68">W</tspan><tspan class="cls-33" x="50.23" y="40.68">orld</tspan></text><rect id="r86" class="cls-20" x="2114.79" y="944.82" width="10" height="27.2"/><rect id="r87" class="cls-23" x="2114.79" y="898.32" width="10" height="27.2"/><rect id="r88" class="cls-28" x="2311.39" y="295.32" width="10" height="570.8"/><text class="cls-34" transform="translate(2153.06 589.44)">Eurasia</text><rect id="r89" class="cls-20" x="2311.39" y="923.32" width="10" height="27.2"/><rect id="r90" class="cls-28" x="2507.99" y="297.82" width="10" height="598"/><text class="cls-35" transform="translate(2329.06 614.73)"><tspan class="cls-17">W</tspan><tspan x="33.35" y="0">orldwide</tspan></text><rect id="r66-2" data-name="r66" class="cls-16" x="1721.49" y="411.82" width="10" height="169.6"/><rect id="r65-2" data-name="r65" class="cls-11" x="1721.69" y="254.72" width="10" height="190.3"/><rect id="r66-3" data-name="r66" class="cls-16" x="1918.49" y="423.02" width="10" height="169.6"/><rect id="r65-3" data-name="r65" class="cls-11" x="1918.49" y="264.42" width="10" height="190.3"/><text class="cls-36" transform="translate(1797.64 739.63)">Asia</text><rect class="cls-11" x="93.68" y="183.89" width="121.9" height="87"/><rect class="cls-16" x="93.68" y="326.39" width="121.9" height="87"/><rect class="cls-18" x="93.68" y="461.69" width="121.9" height="87"/><rect class="cls-20" x="93.68" y="599.79" width="121.9" height="87"/><rect class="cls-23" x="93.68" y="756.49" width="121.9" height="87"/><rect id="r66-4" data-name="r66" class="cls-16" x="2115.09" y="451.62" width="10" height="169.6"/><rect id="r65-4" data-name="r65" class="cls-11" x="2115.19" y="293.42" width="10" height="190.3"/><rect id="r80-2" data-name="r80" class="cls-18" x="2115.09" y="621.52" width="10" height="212.6"/><rect id="r66-5" data-name="r66" class="cls-16" x="2311.39" y="454.62" width="10" height="169.6"/><rect id="r65-5" data-name="r65" class="cls-11" x="2311.19" y="296.22" width="10" height="190.3"/><rect id="r80-3" data-name="r80" class="cls-18" x="2311.39" y="624.22" width="10" height="212.6"/><rect id="r87-2" data-name="r87" class="cls-23" x="2311.39" y="836.92" width="10" height="27.2"/><rect id="r89-2" data-name="r89" class="cls-20" x="2508.39" y="872.42" width="10" height="27.2"/><rect id="r66-6" data-name="r66" class="cls-16" x="2508.39" y="459.62" width="10" height="169.6"/><rect id="r65-6" data-name="r65" class="cls-11" x="2508.29" y="301.22" width="10" height="190.3"/><rect id="r80-4" data-name="r80" class="cls-18" x="2508.39" y="629.22" width="10" height="212.6"/><rect id="r87-3" data-name="r87" class="cls-23" x="2508.49" y="841.92" width="10" height="27.2"/><text class="cls-15" transform="translate(1033.34 287.44)">US</text><text class="cls-37" transform="translate(229.06 234.38)">North<tspan class="cls-38" x="109.02" y="0"> </tspan><tspan class="cls-39" x="118.88" y="0">America </tspan></text><text class="cls-37" transform="translate(239.2 381.03)">Europe</text><text class="cls-37" transform="translate(234.2 526.03)">Asia</text><text class="cls-37" transform="translate(234.2 669.03)">Latin<tspan class="cls-38" x="97.68" y="0"> </tspan><tspan class="cls-39" x="107.54" y="0">America</tspan></text><text class="cls-37" transform="translate(236.2 809.03)">Oceania</text></svg>